<svg width="56" height="56" viewBox="0 0 56 56" fill="none" xmlns="http://www.w3.org/2000/svg">
<rect width="56" height="56" fill="#24A4FC" fill-opacity="0.2"/>
<path d="M41.4214 29.3994L29.3994 41.4214C29.0273 41.7912 28.524 41.9988 27.9994 41.9988C27.4748 41.9988 26.9715 41.7912 26.5994 41.4214L14.5774 29.3994C14.2076 29.0273 14 28.524 14 27.9994C14 27.4748 14.2076 26.9715 14.5774 26.5994L26.5994 14.5774C26.9715 14.2076 27.4748 14 27.9994 14C28.524 14 29.0273 14.2076 29.3994 14.5774L37.4094 22.5894L34.9994 24.9994C34.7638 24.9063 34.5127 24.8588 34.2594 24.8594C33.8703 24.8586 33.4884 24.9645 33.1552 25.1655C32.822 25.3665 32.5502 25.6549 32.3694 25.9994H23.9994C23.8253 25.6558 23.5592 25.3673 23.2308 25.166C22.9024 24.9647 22.5246 24.8585 22.1394 24.8594C21.5718 24.8594 21.0275 25.0848 20.6262 25.4862C20.2248 25.8875 19.9994 26.4318 19.9994 26.9994C19.9994 27.5669 20.2248 28.1113 20.6262 28.5126C21.0275 28.9139 21.5718 29.1394 22.1394 29.1394C22.5246 29.1402 22.9024 29.0341 23.2308 28.8328C23.5592 28.6315 23.8253 28.343 23.9994 27.9994H31.9994L28.1794 31.8294H28.1694C27.9665 31.7608 27.7535 31.727 27.5394 31.7294C27.1171 31.7304 26.7046 31.8566 26.3541 32.092C26.0035 32.3274 25.7307 32.6615 25.57 33.052C25.4093 33.4425 25.368 33.8718 25.4514 34.2858C25.5347 34.6998 25.739 35.0797 26.0383 35.3776C26.3375 35.6755 26.7184 35.8779 27.1328 35.9593C27.5471 36.0407 27.9763 35.9975 28.366 35.8349C28.7558 35.6724 29.0886 35.398 29.3223 35.0464C29.5561 34.6947 29.6804 34.2816 29.6794 33.8594C29.6815 33.6518 29.6476 33.4454 29.5794 33.2494L33.7494 29.0794C33.9161 29.1212 34.0875 29.1414 34.2594 29.1394C34.5404 29.1394 34.8187 29.084 35.0783 28.9765C35.338 28.8689 35.5739 28.7113 35.7726 28.5126C35.9713 28.3139 36.1289 28.078 36.2365 27.8183C36.344 27.5587 36.3994 27.2804 36.3994 26.9994C36.4014 26.8275 36.3812 26.6561 36.3394 26.4894L38.8294 24.0094L41.4214 26.5994C41.7912 26.9715 41.9988 27.4748 41.9988 27.9994C41.9988 28.524 41.7912 29.0273 41.4214 29.3994Z" fill="#24ACFC"/>
</svg>
