<svg width="56" height="56" viewBox="0 0 56 56" fill="none" xmlns="http://www.w3.org/2000/svg">
<rect width="56" height="56" fill="url(#paint0_linear_622_47730)"/>
<path opacity="0.5" d="M28 45C37.3888 45 45 37.3888 45 28C45 18.6112 37.3888 11 28 11C18.6112 11 11 18.6112 11 28C11 37.3888 18.6112 45 28 45Z" stroke="#6366F1" stroke-dasharray="3 3"/>
<path d="M32 21H24C22.3431 21 21 22.3431 21 24V32C21 33.6569 22.3431 35 24 35H32C33.6569 35 35 33.6569 35 32V24C35 22.3431 33.6569 21 32 21Z" fill="#6366F1" fill-opacity="0.18" stroke="#818CF8" stroke-width="1.4"/>
<path d="M30.5 24H25.5C24.6716 24 24 24.6716 24 25.5V30.5C24 31.3284 24.6716 32 25.5 32H30.5C31.3284 32 32 31.3284 32 30.5V25.5C32 24.6716 31.3284 24 30.5 24Z" fill="#818CF8" fill-opacity="0.4"/>
<path d="M27.9999 12.5999C29.4358 12.5999 30.5999 11.4358 30.5999 9.9999C30.5999 8.56396 29.4358 7.3999 27.9999 7.3999C26.564 7.3999 25.3999 8.56396 25.3999 9.9999C25.3999 11.4358 26.564 12.5999 27.9999 12.5999Z" fill="#818CF8"/>
<path d="M45.9999 30.5999C47.4358 30.5999 48.5999 29.4358 48.5999 27.9999C48.5999 26.564 47.4358 25.3999 45.9999 25.3999C44.564 25.3999 43.3999 26.564 43.3999 27.9999C43.3999 29.4358 44.564 30.5999 45.9999 30.5999Z" fill="#818CF8"/>
<path d="M27.9999 48.5999C29.4358 48.5999 30.5999 47.4358 30.5999 45.9999C30.5999 44.564 29.4358 43.3999 27.9999 43.3999C26.564 43.3999 25.3999 44.564 25.3999 45.9999C25.3999 47.4358 26.564 48.5999 27.9999 48.5999Z" fill="#818CF8"/>
<path d="M9.9999 30.5999C11.4358 30.5999 12.5999 29.4358 12.5999 27.9999C12.5999 26.564 11.4358 25.3999 9.9999 25.3999C8.56396 25.3999 7.3999 26.564 7.3999 27.9999C7.3999 29.4358 8.56396 30.5999 9.9999 30.5999Z" fill="#818CF8"/>
<path opacity="0.85" d="M43.4 28H35" stroke="#A5B4FC"/>
<path opacity="0.7" d="M28 43.4V35" stroke="#A5B4FC"/>
<path opacity="0.55" d="M12.6001 28H21.0001" stroke="#A5B4FC"/>
<path d="M28 12V20.4" stroke="#A5B4FC"/>
<path d="M26 28.1818L27.7857 30L31 26" stroke="#7C34FC" stroke-linecap="round" stroke-linejoin="round"/>
<defs>
<linearGradient id="paint0_linear_622_47730" x1="56" y1="0" x2="0" y2="56" gradientUnits="userSpaceOnUse">
<stop offset="0.5" stop-color="#9C74F4" stop-opacity="0.2"/>
<stop offset="1" stop-color="#7C3CFC" stop-opacity="0.2"/>
</linearGradient>
</defs>
</svg>
