<svg width="56" height="56" viewBox="0 0 56 56" fill="none" xmlns="http://www.w3.org/2000/svg">
<rect width="56" height="56" fill="url(#paint0_linear_1018_47868)" fill-opacity="0.2"/>
<path d="M19 8V12C19 12.2652 19.1054 12.5196 19.2929 12.7071C19.4804 12.8946 19.7348 13 20 13H36C36.2652 13 36.5196 12.8946 36.7071 12.7071C36.8946 12.5196 37 12.2652 37 12V8C37 7.73478 36.8946 7.48043 36.7071 7.29289C36.5196 7.10536 36.2652 7 36 7H20C19.7348 7 19.4804 7.10536 19.2929 7.29289C19.1054 7.48043 19 7.73478 19 8ZM25 11H21V9H25V11ZM29 11H27V9H29V11ZM19 16V20C19 20.2652 19.1054 20.5196 19.2929 20.7071C19.4804 20.8946 19.7348 21 20 21H36C36.2652 21 36.5196 20.8946 36.7071 20.7071C36.8946 20.5196 37 20.2652 37 20V16C37 15.7348 36.8946 15.4804 36.7071 15.2929C36.5196 15.1054 36.2652 15 36 15H20C19.7348 15 19.4804 15.1054 19.2929 15.2929C19.1054 15.4804 19 15.7348 19 16ZM25 19H21V17H25V19ZM29 19H27V17H29V19Z" fill="#FC7C54"/>
<path d="M44.8 36H35.2C34.8817 36 34.5765 36.1317 34.3515 36.3661C34.1264 36.6005 34 36.9185 34 37.25V43.5C34 43.8315 34.1264 44.1495 34.3515 44.3839C34.5765 44.6183 34.8817 44.75 35.2 44.75H37.6V46H42.4V44.75H44.8C45.1183 44.75 45.4235 44.6183 45.6485 44.3839C45.8736 44.1495 46 43.8315 46 43.5V37.25C46 36.9185 45.8736 36.6005 45.6485 36.3661C45.4235 36.1317 45.1183 36 44.8 36ZM44.8 43.5H35.2V37.25H44.8V43.5Z" fill="#FCAC84"/>
<path d="M19.8 36H10.2C9.88174 36 9.57652 36.1317 9.35147 36.3661C9.12643 36.6005 9 36.9185 9 37.25V43.5C9 43.8315 9.12643 44.1495 9.35147 44.3839C9.57652 44.6183 9.88174 44.75 10.2 44.75H12.6V46H17.4V44.75H19.8C20.1183 44.75 20.4235 44.6183 20.6485 44.3839C20.8736 44.1495 21 43.8315 21 43.5V37.25C21 36.9185 20.8736 36.6005 20.6485 36.3661C20.4235 36.1317 20.1183 36 19.8 36ZM19.8 43.5H10.2V37.25H19.8V43.5Z" fill="#FCAC84"/>
<path d="M28 21C27.95 21.4667 27.9025 21.9333 27.8575 22.4C27.7096 23.9333 27.5888 25.4667 27.4949 27L28 26.4949C25.3333 26.3316 22.6667 26.25 20 26.25C18.3333 26.25 16.6667 26.2819 15 26.3457L14.3716 26.3216L14.3457 27C14.4426 29.5333 14.6132 32.0667 14.8575 34.6C14.9025 35.0667 14.95 35.5333 15 36C15.05 35.5333 15.0975 35.0667 15.1425 34.6C15.3868 32.0667 15.5574 29.5333 15.6543 27L15 27.6543C16.6667 27.7181 18.3333 27.75 20 27.75C22.6667 27.75 25.3333 27.6684 28 27.5051L28.534 27.4724L28.5051 27C28.4112 25.4667 28.2904 23.9333 28.1425 22.4C28.0975 21.9333 28.05 21.4667 28 21Z" fill="#FF6646" fill-opacity="0.25"/>
<path d="M28 27C28.35 27.05 28.7 27.0975 29.05 27.1425C32.2 27.5475 35.35 27.75 38.5 27.75C39 27.75 39.5 27.7449 40 27.7347L39.2653 27C39.3194 29.65 39.5168 32.3 39.8575 34.95C39.9025 35.3 39.95 35.65 40 36C40.05 35.65 40.0975 35.3 40.1425 34.95C40.4832 32.3 40.6806 29.65 40.7347 27L40.7194 26.2506L40 26.2653C39.5 26.2551 39 26.25 38.5 26.25C35.35 26.25 32.2 26.4525 29.05 26.8575C28.7 26.9025 28.35 26.95 28 27Z" fill="#FF6646" fill-opacity="0.25"/>
<defs>
<linearGradient id="paint0_linear_1018_47868" x1="28" y1="0" x2="28" y2="56" gradientUnits="userSpaceOnUse">
<stop offset="0.5" stop-color="#FC8454"/>
<stop offset="1" stop-color="#FF7139" stop-opacity="0.75"/>
</linearGradient>
</defs>
</svg>
