<svg width="56" height="56" viewBox="0 0 56 56" fill="none" xmlns="http://www.w3.org/2000/svg">
<rect width="56" height="56" fill="url(#paint0_linear_1019_48307)"/>
<path d="M25.7455 13V21.07L28 24.16L30.2545 21.07V13H25.7455ZM30.2545 21.07V24.91L33.8918 23.71L38.6713 17.2L35.004 14.53L30.2545 21.07ZM33.8918 23.71L31.6373 26.83L35.3046 28L43 25.51L41.5872 21.22L33.8918 23.71ZM35.3046 28L31.6373 29.17L33.8918 32.29L41.5872 34.78L43 30.49L35.3046 28ZM33.8918 32.29L30.2545 31.09V34.93L35.004 41.47L38.6713 38.8L33.8918 32.29ZM30.2545 34.93L28 31.84L25.7455 34.93V43H30.2545V34.93ZM25.7455 34.93V31.09L22.1082 32.29L17.3287 38.8L20.996 41.47L25.7455 34.93ZM22.1082 32.29L24.3627 29.17L20.6954 28L13 30.49L14.4128 34.78L22.1082 32.29ZM20.6954 28L24.3627 26.83L22.1082 23.71L14.4128 21.22L13 25.51L20.6954 28ZM22.1082 23.71L25.7455 24.91V21.07L20.996 14.53L17.3287 17.2L22.1082 23.71Z" fill="#9A67FF"/>
<defs>
<linearGradient id="paint0_linear_1019_48307" x1="56" y1="0" x2="0" y2="56" gradientUnits="userSpaceOnUse">
<stop offset="0.245192" stop-color="#9C74F4" stop-opacity="0.2"/>
<stop offset="1" stop-color="#7C3CFC" stop-opacity="0.2"/>
</linearGradient>
</defs>
</svg>
