<svg width="56" height="56" viewBox="0 0 56 56" fill="none" xmlns="http://www.w3.org/2000/svg">
<rect width="56" height="56" fill="url(#paint0_linear_1009_47674)" fill-opacity="0.2"/>
<path d="M27.5 41C27.1114 41 26.75 40.8997 26.4125 40.7261L22.9705 38.7674C22.4534 38.4946 22.7125 38.3954 22.8682 38.3459C23.5659 38.1227 23.6955 38.0731 24.4205 37.6753C24.4977 37.6257 24.6023 37.6505 24.6795 37.7001L27.3193 39.2137C27.4216 39.2633 27.5523 39.2633 27.6295 39.2137L37.9557 33.4839C38.058 33.4343 38.1102 33.3351 38.1102 33.2111V21.7763C38.1102 21.6523 38.0591 21.5532 37.9557 21.5036L27.6295 15.7997C27.5261 15.7501 27.3966 15.7501 27.3193 15.7997L16.9932 21.5036C16.8898 21.5532 16.8375 21.6771 16.8375 21.7763V33.2111C16.8375 33.3103 16.8898 33.4343 16.9932 33.4839L19.8136 35.047C21.3409 35.7909 22.2977 34.9231 22.2977 34.0553V22.7692C22.2977 22.6204 22.4273 22.4717 22.6091 22.4717H23.9284C24.0841 22.4717 24.2386 22.5957 24.2386 22.7692V34.0541C24.2386 36.014 23.1261 37.1546 21.1852 37.1546C20.5898 37.1546 20.1239 37.1546 18.8045 36.5347L16.0875 35.047C15.7601 34.8685 15.4867 34.6065 15.2955 34.2881C15.1043 33.9697 15.0023 33.6065 15 33.2359V21.8011C15 21.0573 15.4136 20.363 16.0875 19.9911L26.4136 14.2602C26.7498 14.0892 27.1222 14 27.5 14C27.8778 14 28.2502 14.0892 28.5864 14.2602L38.9136 19.99C39.5864 20.3619 40 21.0561 40 21.8V33.2348C40 33.9786 39.5864 34.6729 38.9136 35.0459L28.5864 40.7746C28.2435 40.922 27.8737 40.998 27.5 40.9977V41ZM30.683 33.1367C26.1545 33.1367 25.2227 31.1532 25.2227 29.466C25.2227 29.3172 25.3523 29.1685 25.533 29.1685H26.8784C27.0341 29.1685 27.1625 29.2677 27.1625 29.4164C27.3705 30.7305 27.9659 31.3752 30.7091 31.3752C32.883 31.3752 33.8148 30.9041 33.8148 29.7883C33.8148 29.1437 33.5557 28.6726 30.1659 28.3503C27.3443 28.0764 25.5852 27.4824 25.5852 25.3242C25.5852 23.3147 27.3443 22.1234 30.2955 22.1234C33.608 22.1234 35.2386 23.2155 35.4455 25.5969C35.4431 25.6775 35.4158 25.7555 35.367 25.8201C35.3159 25.8697 35.2386 25.9193 35.1602 25.9193H33.8148C33.7494 25.9177 33.6863 25.8951 33.6351 25.8548C33.5838 25.8145 33.5472 25.7588 33.5307 25.6961C33.2193 24.3324 32.417 23.885 30.2955 23.885C27.9136 23.885 27.6295 24.6784 27.6295 25.2735C27.6295 25.9936 27.9659 26.2168 31.175 26.6135C34.358 27.0102 35.8591 27.5805 35.8591 29.7128C35.833 31.897 33.9705 33.1367 30.683 33.1367Z" fill="#DAB2FF"/>
<defs>
<linearGradient id="paint0_linear_1009_47674" x1="28" y1="0" x2="28" y2="56" gradientUnits="userSpaceOnUse">
<stop stop-color="#DAB2FF"/>
<stop offset="1" stop-color="#9810FA" stop-opacity="0.75"/>
</linearGradient>
</defs>
</svg>
